<svg xmlns="http://www.w3.org/2000/svg" width="680" height="680" viewBox="0 0 680 680"><title>Mynaphone stopped</title><rect width="680" height="680" rx="136" fill="#f3efe6"/><defs><clipPath id="head-clip"><path d="M639.00,347.00 C638.67,348.00 639.05,350.08 638.00,350.00 C583.89,345.84 617.69,341.35 570.00,344.00 C511.75,347.24 457.40,355.64 416.00,402.00 C381.29,440.88 400.73,477.23 423.00,516.00 C432.67,532.83 436.66,543.30 442.00,562.00 C442.93,565.24 446.68,574.66 442.00,577.00 C367.54,588.09 295.28,592.45 222.00,571.00 C158.19,552.33 104.29,503.21 37.00,499.00 C43.23,447.63 55.54,400.29 74.00,352.00 C74.00,339.82 48.03,368.05 46.00,364.00 C58.12,337.84 66.70,314.30 87.00,294.00 C77.96,290.99 57.00,308.76 57.00,300.00 C78.49,263.16 99.67,224.77 133.00,197.00 C206.12,136.07 325.37,123.50 412.00,162.00 C433.31,171.47 450.52,182.00 466.00,200.00 C496.35,235.31 477.56,226.33 503.00,248.00 C520.20,262.65 519.51,255.59 545.00,268.00 C586.40,288.16 616.32,307.83 639.00,347.00 Z"/></clipPath></defs><path fill="#5b574f" d="M639.00,347.00 C638.67,348.00 639.05,350.08 638.00,350.00 C583.89,345.84 617.69,341.35 570.00,344.00 C511.75,347.24 457.40,355.64 416.00,402.00 C381.29,440.88 400.73,477.23 423.00,516.00 C432.67,532.83 436.66,543.30 442.00,562.00 C442.93,565.24 446.68,574.66 442.00,577.00 C367.54,588.09 295.28,592.45 222.00,571.00 C158.19,552.33 104.29,503.21 37.00,499.00 C43.23,447.63 55.54,400.29 74.00,352.00 C74.00,339.82 48.03,368.05 46.00,364.00 C58.12,337.84 66.70,314.30 87.00,294.00 C77.96,290.99 57.00,308.76 57.00,300.00 C78.49,263.16 99.67,224.77 133.00,197.00 C206.12,136.07 325.37,123.50 412.00,162.00 C433.31,171.47 450.52,182.00 466.00,200.00 C496.35,235.31 477.56,226.33 503.00,248.00 C520.20,262.65 519.51,255.59 545.00,268.00 C586.40,288.16 616.32,307.83 639.00,347.00 Z"/><path fill="#8d877b" d="M450.00,279.00 C420.11,299.38 398.39,334.54 364.00,348.00 C309.94,369.16 263.91,335.25 215.00,316.00 C184.09,303.83 169.27,302.79 137.00,297.00 C182.33,273.00 227.17,248.05 273.00,225.00 C319.87,201.43 367.47,196.47 407.00,236.00 C454.11,283.11 422.76,259.19 450.00,279.00 Z"/><path fill="#8d877b" d="M517,257 C564,274 620,302 639,350 C573,341 502,349 433,360 C433,333 449,309 472,295 C496,280 509,282 517,257 Z" stroke="#8d877b" stroke-width="5" stroke-linejoin="round" clip-path="url(#head-clip)"/><circle cx="335" cy="279" r="49.5" fill="#ede7da"/></svg>